<?xml version="1.0" encoding="UTF-8"?>
<!DOCTYPE svg PUBLIC "-//W3C//DTD SVG 1.1//EN" "http://www.w3.org/Graphics/SVG/1.1/DTD/svg11.dtd">
<!-- Creator: CorelDRAW 2020 (64-Bit) -->
<svg xmlns="http://www.w3.org/2000/svg" xml:space="preserve" width="1540.93mm" height="393.7mm" version="1.1" style="shape-rendering:geometricPrecision; text-rendering:geometricPrecision; image-rendering:optimizeQuality; fill-rule:evenodd; clip-rule:evenodd"
viewBox="0 0 264796.9 67654.15"
 xmlns:xlink="http://www.w3.org/1999/xlink"
 xmlns:xodm="http://www.corel.com/coreldraw/odm/2003">
 <defs>
  <style type="text/css">
   <![CDATA[
    .fil8 {fill:none}
    .fil6 {fill:url(#id23)}
    .fil7 {fill:url(#id24)}
    .fil2 {fill:url(#id25)}
    .fil4 {fill:url(#id26)}
    .fil3 {fill:url(#id27)}
    .fil5 {fill:url(#id28)}
    .fil1 {fill:url(#id29)}
    .fil0 {fill:url(#id30)}
   ]]>
  </style>
   <clipPath id="id0">
    <path d="M-0 0l264796.9 0 0 67654.15 -264796.9 0 0 -67654.15z"/>
   </clipPath>
     <clipPath id="id1">
      <path d="M123754.79 18438.92l99685.97 0 0 26948.29 -99685.97 0 0 -26948.29z"/>
     </clipPath>
     <clipPath id="id2">
      <path d="M-0 0l264796.9 0 0 67654.15 -264796.9 0 0 -67654.15z"/>
     </clipPath>
    <clipPath id="id3">
     <path d="M125406.25 20275.21l93467.14 1091.21 0.02 19638.26 -91621.69 -1396.23 -1845.46 -19333.24z"/>
    </clipPath>
    <clipPath id="id4">
     <path d="M-0 0l264796.9 0 0 67654.15 -264796.9 0 0 -67654.15z"/>
    </clipPath>
      <clipPath id="id5">
       <path d="M50179.71 10014.81l76722.21 0 0 51562.42 -76722.21 0 0 -51562.42z"/>
      </clipPath>
      <clipPath id="id6">
       <path d="M-0 0l264796.9 0 0 67654.15 -264796.9 0 0 -67654.15z"/>
      </clipPath>
      <clipPath id="id7">
       <path d="M160204.81 0l0 58981.04 -83024.53 0 0 -58981.04 83024.53 0z"/>
      </clipPath>
      <clipPath id="id8">
       <path d="M-0 0l264796.9 0 0 67654.15 -264796.9 0 0 -67654.15z"/>
      </clipPath>
     <clipPath id="id9">
      <path d="M80048.26 0l67629 0 0 48183.13 -67629 0 0 -48183.13z"/>
     </clipPath>
     <clipPath id="id10">
      <path d="M-0 0l264796.9 0 0 67654.15 -264796.9 0 0 -67654.15z"/>
     </clipPath>
      <clipPath id="id11">
       <path d="M72389.56 21590.4l33548.46 0 0 38690.69 -33548.46 0 0 -38690.69z"/>
      </clipPath>
      <clipPath id="id12">
       <path d="M-0 0l264796.9 0 0 67654.15 -264796.9 0 0 -67654.15z"/>
      </clipPath>
     <clipPath id="id13">
      <path d="M72426.82 22997.84l25806.52 0 0 30948.75 -25806.52 0 0 -30948.75z"/>
     </clipPath>
     <clipPath id="id14">
      <path d="M-0 0l264796.9 0 0 67654.15 -264796.9 0 0 -67654.15z"/>
     </clipPath>
     <clipPath id="id15">
      <path d="M128487.87 42551.68l107942.68 0 0 21746.93 -107942.68 0 0 -21746.93z"/>
     </clipPath>
     <clipPath id="id16">
      <path d="M-0 0l264796.9 0 0 67654.15 -264796.9 0 0 -67654.15z"/>
     </clipPath>
    <clipPath id="id17">
     <path d="M129539.18 43787.79l102924.18 0 0 16728.43 -102924.18 0 0 -16728.43z"/>
    </clipPath>
    <clipPath id="id18">
     <path d="M-0 0l264796.9 0 0 67654.15 -264796.9 0 0 -67654.15z"/>
    </clipPath>
     <clipPath id="id19">
      <path d="M160296.1 67654.15l0 -67654.15 104500.79 0 0 67654.15 -104500.79 0z"/>
     </clipPath>
     <clipPath id="id20">
      <path d="M-0 0l264796.9 0 0 67654.15 -264796.9 0 0 -67654.15z"/>
     </clipPath>
    <clipPath id="id21">
     <path d="M166393.14 0l98403.76 0 0 67654.15 -98403.76 0 0 -67654.15z"/>
    </clipPath>
    <clipPath id="id22">
     <path d="M-0 0l264796.9 0 0 67654.15 -264796.9 0 0 -67654.15z"/>
    </clipPath>
  <linearGradient id="id23" gradientUnits="userSpaceOnUse" x1="70272.83" y1="24223.05" x2="79276.56" y2="24223.05">
   <stop offset="0" style="stop-opacity:1; stop-color:#F0C62F"/>
   <stop offset="0.811765" style="stop-opacity:1; stop-color:#F7E297"/>
   <stop offset="1" style="stop-opacity:1; stop-color:white"/>
  </linearGradient>
  <linearGradient id="id24" gradientUnits="userSpaceOnUse" xlink:href="#id23" x1="91742.94" y1="24223.05" x2="100745.67" y2="24223.05">
  </linearGradient>
  <linearGradient id="id25" gradientUnits="userSpaceOnUse" x1="58499.59" y1="38144.51" x2="83432.36" y2="38144.51">
   <stop offset="0" style="stop-opacity:1; stop-color:#FF6600"/>
   <stop offset="0.811765" style="stop-opacity:1; stop-color:#FFB27F"/>
   <stop offset="1" style="stop-opacity:1; stop-color:white"/>
  </linearGradient>
  <linearGradient id="id26" gradientUnits="userSpaceOnUse" xlink:href="#id23" x1="52959.53" y1="47076.42" x2="79692.43" y2="47076.42">
  </linearGradient>
  <linearGradient id="id27" gradientUnits="userSpaceOnUse" xlink:href="#id25" x1="87587.15" y1="38144.51" x2="112381.29" y2="38144.51">
  </linearGradient>
  <linearGradient id="id28" gradientUnits="userSpaceOnUse" xlink:href="#id23" x1="91049.82" y1="47103.35" x2="117782.72" y2="47103.35">
  </linearGradient>
  <linearGradient id="id29" gradientUnits="userSpaceOnUse" xlink:href="#id25" x1="78029.93" y1="32327.2" x2="92960.67" y2="32327.2">
  </linearGradient>
  <linearGradient id="id30" gradientUnits="userSpaceOnUse" x1="143219.66" y1="-5955.99" x2="143219.73" y2="41329.17">
   <stop offset="0" style="stop-opacity:1; stop-color:#AAA5A2"/>
   <stop offset="1" style="stop-opacity:1; stop-color:#EBE3E0"/>
  </linearGradient>
 </defs>
 <g id="Capa_x0020_1">
  <metadata id="CorelCorpID_0Corel-Layer"/>
  <polygon class="fil0" points="-0,0 264796.9,0 264796.9,67654.15 -0,67654.15 "/>
  <g style="clip-path:url(#id0)">
   <g id="_2021609823184">
    <g>
    </g>
    <g style="clip-path:url(#id1)">
     <image x="123754.79" y="18438.92" width="99685.97" height="26948.29" xlink:href="headersm_Images\headersm_ImgID1.png"/>
    </g>
    <g style="clip-path:url(#id2)">
    </g>
   </g>
   <g style="clip-path:url(#id3)">
    <image x="129043.57" y="21366.4" width="192402.26" height="16728.44" xlink:href="headersm_Images\headersm_ImgID2.png"/>
   </g>
   <g style="clip-path:url(#id4)">
    <g>
     <g>
     </g>
     <g style="clip-path:url(#id5)">
      <image x="50179.71" y="10014.81" width="76722.21" height="51562.42" xlink:href="headersm_Images\headersm_ImgID3.png"/>
     </g>
     <g style="clip-path:url(#id6)">
     </g>
     <g>
      <path class="fil1" d="M78029.93 37521.19c0,1322.44 282.23,3445.72 580.43,4544.75 913.53,3372.89 2121.28,5086.28 4440.03,7333.23 321.12,311.15 356.04,364.01 736.02,649.24 188.48,141.63 1507.93,1047.19 1584.73,1047.19 1110,0 3449.69,-2345.68 4375.2,-3520.51 5300.7,-6725.87 2978.96,-15757.52 593.4,-22918.2l-4968.6 -11099.08 -2434.45 5322.65c-1948.74,4666.42 -2695.72,6689.96 -3965.3,11686.48 -228.38,896.58 -498.65,2300.81 -625.32,3253.24 -142.61,1076.09 -316.14,2622.93 -316.14,3701.01z"/>
      <path class="fil2" d="M80523.2 51649.1l2909.16 -138.62c-287.23,-427.85 -1603.68,-1220.71 -2591.01,-2395.54 -2928.12,-3480.61 -4058.06,-7192.6 -4058.06,-12148.24 0,-4290.43 1360.33,-2998.92 -2050.47,-5152.11 -1595.71,-1006.29 -3311.08,-1883.92 -5013.49,-2743.59 -2704.7,-1366.31 -5476.24,-2339.7 -8212.85,-3421.78 -871.65,-345.06 -2109.31,-800.83 -3006.89,-1010.28 89.75,1074.11 2887.22,7964.53 3324.04,8865.1 3045.78,6277.07 4649.46,9971.11 9870.37,14646.51 1770.23,1585.72 5534.08,3498.56 8829.2,3498.56z"/>
      <path class="fil3" d="M93958.96 33226.77c0,1155.88 277.25,2850.31 277.25,4986.56 0,8797.27 -6145.43,12610 -6649.06,13297.14l2631.9 138.62c3504.56,0 6883.43,-1748.28 8833.19,-3355.95 1068.12,-878.63 2257.92,-1948.74 3079.7,-3014.86 3992.23,-5184.02 6340.9,-9554.25 8704.53,-15950 284.23,-768.92 504.63,-1460.05 811.8,-2236.97 234.38,-592.41 718.08,-1773.22 733.03,-2452.39 -882.61,205.45 -1652.53,552.51 -2476.31,848.71 -5270.8,1894.9 -9074.54,3583.35 -13824.73,6397.76 -775.9,458.77 -1361.33,939.46 -2121.28,1341.38z"/>
      <path class="fil4" d="M52959.53 45693.16c135.63,510.61 246.34,424.84 1197.77,878.63 5318.66,2535.17 11829.09,5227.91 17638.43,6186.32 1343.37,221.4 2300.79,388.95 3885.52,410.89l3033.83 -2.99c435.83,-34.92 499.65,-120.68 977.35,-131.65 -449.78,-285.24 -1770.21,-368.02 -2683.76,-641.28 -984.34,-295.21 -1623.61,-570.46 -2522.19,-940.46 -3828.69,-1576.75 -6598.21,-5143.14 -8962.84,-8350.48 -504.63,-684.15 -887.6,-1435.14 -1345.37,-2118.29 -964.39,224.39 -1895.88,679.17 -2856.3,1021.26 -1903.85,677.16 -3807.72,1622.62 -5632.8,2401.52 -815.8,348.05 -1962.71,1108 -2729.64,1286.53z"/>
      <path class="fil5" d="M91049.82 53034.36c3296.1,73.79 3960.32,494.66 7794.97,-239.36 4808.05,-921.52 8771.36,-2274.86 13159.53,-4154.79l4486.89 -2022.54c1122.97,-519.6 1155.88,-415.89 1291.51,-924.51l-11080.12 -4709.31c-1276.56,2411.51 -3221.31,4933.7 -5159.09,6892.42 -387.95,391.94 -585.41,490.68 -968.38,831.75 -2238.96,1995.62 -5045.4,3465.65 -8059.28,3991.23l-1466.03 335.11z"/>
      <path class="fil6" d="M70272.83 22838.78l138.62 5124.19 5185.02 2849.31c480.71,287.23 1313.47,915.54 1741.31,1029.23 79.79,-166.55 1263.6,-5656.74 1938.77,-7063.95 -466.74,-313.15 -2964,-3270.18 -4213.63,-4235.58 -1110.01,-856.68 -3079.7,-2976.97 -4512.84,-3936.38 -12.96,597.39 -135.63,659.22 -143.61,1379.27 -5.98,534.57 43.89,1120.98 -14.95,1647.57 -111.7,995.31 -118.69,2014.57 -118.69,3206.35z"/>
      <path class="fil7" d="M91742.94 24777.55c422.87,880.64 746.98,2295.81 1060.14,3372.91 360.03,1239.65 586.41,2435.43 878.63,3691.04 1233.67,-652.24 5532.09,-3553.41 6926.33,-3878.54 0,-1795.16 137.63,-3169.45 137.63,-4847.93 0,-1242.64 -145.6,-2103.33 -141.61,-3182.41 2.99,-544.53 23.94,-1128.97 7.97,-1669.5 -20.95,-713.09 -142.61,-847.73 -142.61,-1657.53 -826.77,436.82 -1513.93,1291.51 -2274.88,1879.93l-6451.6 6292.02z"/>
     </g>
     <g>
     </g>
     <g style="clip-path:url(#id7)">
      <image x="77180.27" y="-7732.97" width="83024.53" height="66714.01" xlink:href="headersm_Images\headersm_ImgID4.png"/>
     </g>
     <g style="clip-path:url(#id8)">
     </g>
    </g>
    <g style="clip-path:url(#id9)">
     <image id="mariposas.png" x="80048.26" y="-3135.32" width="67629.01" height="51318.45" xlink:href="headersm_Images\headersm_ImgID5.png"/>
    </g>
    <g style="clip-path:url(#id10)">
     <g>
     </g>
     <g style="clip-path:url(#id11)">
      <image x="72389.56" y="21590.4" width="33548.46" height="38690.69" xlink:href="headersm_Images\headersm_ImgID6.png"/>
     </g>
     <g style="clip-path:url(#id12)">
     </g>
    </g>
    <g style="clip-path:url(#id13)">
     <image id="Statue-Buddha-Face-PNG-Clipart.png" x="72426.82" y="22997.84" width="25806.5" height="30948.75" xlink:href="headersm_Images\headersm_ImgID7.png"/>
    </g>
    <g style="clip-path:url(#id14)">
    </g>
    <g>
    </g>
    <g style="clip-path:url(#id15)">
     <image x="128487.87" y="42551.68" width="107942.68" height="21746.93" xlink:href="headersm_Images\headersm_ImgID8.png"/>
    </g>
    <g style="clip-path:url(#id16)">
    </g>
   </g>
   <g style="clip-path:url(#id17)">
    <image x="129539.18" y="43787.78" width="102924.18" height="16728.44" xlink:href="headersm_Images\headersm_ImgID9.png"/>
   </g>
   <g style="clip-path:url(#id18)">
    <g>
    </g>
    <g style="clip-path:url(#id19)">
     <image x="160296.1" y="-41607.64" width="137889.78" height="137889.8" xlink:href="headersm_Images\headersm_ImgID10.png"/>
    </g>
    <g style="clip-path:url(#id20)">
    </g>
   </g>
   <g style="clip-path:url(#id21)">
    <image id="bambootop.png" x="166393.14" y="-31275.71" width="106069.16" height="106069.16" xlink:href="headersm_Images\headersm_ImgID11.png"/>
   </g>
   <g style="clip-path:url(#id22)">
   </g>
  </g>
  <polygon class="fil8" points="-0,0 264796.9,0 264796.9,67654.15 -0,67654.15 "/>
 </g>
</svg>
